P2
102 102
245
162 156 161 154 153 157 154 159 166 175 167 160 129 97 102 104 109 109 107 109 103 110 121 121 124 127 135 127 131 125 129 128 127 133 130 133 131 134 133 134 135 136 131 132 132 128 130 132 135 134 132 137 131 133 130 132 130 131 131 125 126 123 121 112 104 131 145 158 162 149 150 152 159 153 153 152 154 157 154 158 155 198 212 218 191 104 104 117 126 124 124 117 122 123 124 124 128 130 129 122 118 163 164 159 154 154 151 156 154 151 163 173 170 158 122 95 95 99 104 105 106 102 104 111 118 121 125 123 131 126 135 125 130 130 129 137 132 132 131 127 133 133 133 133 134 128 130 126 129 129 129 131 128 129 131 127 129 130 123 126 130 127 126 120 118 108 101 128 144 155 158 151 154 147 153 154 151 155 157 155 154 156 149 193 214 217 199 101 112 118 121 122 123 118 121 123 120 128 126 127 129 123 121 142 155 154 157 154 158 151 150 158 169 172 164 148 130 90 95 100 103 104 110 101 105 107 120 124 122 125 132 128 127 130 125 130 127 133 132 133 129 127 131 128 134 129 135 130 125 124 129 130 134 131 129 129 132 129 126 124 126 127 129 128 128 119 117 117 110 113 139 150 161 159 152 159 157 157 154 158 154 157 154 152 155 155 205 215 217 163 100 110 122 116 121 119 119 123 117 121 121 125 123 135 114 47 158 157 156 155 155 155 157 165 169 167 164 151 121 92 90 102 106 106 105 102 101 109 118 119 126 127 128 126 129 130 129 126 130 134 137 129 130 130 128 136 130 128 128 133 131 132 131 133 132 135 128 129 128 129 126 126 129 131 131 128 128 130 121 109 110 105 127 147 157 160 163 159 162 157 155 154 154 154 150 151 154 149 185 213 219 206 111 109 122 117 120 121 121 119 125 123 126 124 128 111 50 47 156 156 158 161 153 150 160 166 168 165 163 145 130 94 88 97 106 109 102 101 103 112 110 119 125 124 126 127 131 128 131 132 129 130 126 131 129 130 131 128 130 126 130 129 139 130 130 125 133 133 134 131 126 133 124 131 131 125 126 126 129 126 123 120 108 104 116 140 152 163 161 160 162 162 156 156 152 155 153 155 152 149 145 203 217 222 184 111 118 119 121 123 116 120 127 126 131 139 111 50 53 51 154 157 161 158 157 157 166 167 160 156 162 151 125 95 91 97 105 105 109 101 103 113 115 120 121 125 129 122 130 130 131 127 129 128 131 133 127 125 129 131 127 129 121 126 125 128 124 125 126 128 128 132 130 127 125 127 128 125 129 124 127 125 123 117 108 104 119 140 153 162 161 162 160 158 159 155 151 153 154 152 151 148 147 172 213 219 213 130 106 113 121 122 124 122 127 132 135 110 73 46 39 47 156 160 159 158 158 165 168 165 159 154 162 158 131 89 90 100 107 103 103 100 101 109 112 119 121 121 125 126 130 127 129 126 127 127 131 134 130 127 132 132 131 119 121 123 128 130 127 121 129 130 131 138 129 127 126 128 129 127 123 126 125 128 122 118 113 109 116 137 151 157 164 157 161 157 157 157 153 156 152 157 150 149 149 143 198 217 221 203 98 113 117 123 119 127 128 130 112 40 48 45 46 53 159 156 159 159 163 166 166 168 158 158 165 154 125 92 88 101 104 105 106 103 98 107 114 118 123 128 126 127 129 127 125 129 131 126 126 127 130 126 127 131 123 123 127 122 122 129 123 117 123 126 131 128 134 128 127 133 126 131 128 128 127 125 120 113 113 104 116 134 144 151 156 159 157 157 153 159 158 157 151 151 154 154 146 143 161 213 223 222 165 98 114 118 123 121 128 116 43 37 54 52 55 48 164 161 163 166 169 165 163 157 158 160 161 153 122 88 91 97 104 105 102 108 107 109 117 117 121 121 118 126 125 126 122 131 133 129 132 128 131 130 127 125 126 125 117 128 117 120 120 118 122 129 126 132 126 129 125 128 126 129 128 121 127 123 119 116 110 116 113 129 142 147 152 154 156 158 151 156 151 154 156 155 148 147 147 142 141 196 218 224 209 107 114 110 120 132 111 44 41 40 55 51 48 47 161 159 160 171 161 154 158 154 160 161 161 152 125 88 96 98 104 103 98 101 106 109 119 119 118 121 127 125 120 128 129 127 130 123 133 129 124 124 124 130 121 122 126 125 139 143 154 148 118 122 118 121 120 125 127 129 130 124 129 125 125 124 121 113 118 102 115 126 138 147 152 153 157 154 154 152 152 155 157 151 149 144 144 145 137 151 207 220 223 178 106 112 121 102 43 45 49 53 62 51 59 44 161 160 165 165 157 146 147 157 162 160 163 154 127 94 92 99 102 106 101 102 104 110 109 124 122 125 124 126 124 126 132 127 130 130 124 134 127 128 120 144 146 160 142 180 178 180 169 174 168 192 171 117 111 120 122 129 129 126 125 124 126 125 117 124 114 107 112 132 140 144 144 150 152 154 154 155 158 154 151 146 142 144 145 141 140 143 188 216 223 217 128 120 103 41 42 45 53 55 59 56 41 42 158 162 169 162 147 129 136 162 164 162 161 152 126 85 87 93 100 95 98 103 105 110 116 118 123 126 123 126 126 128 125 128 128 130 126 126 129 127 146 145 142 142 149 170 169 163 178 178 176 174 184 196 197 111 115 123 122 126 126 130 125 122 118 114 112 107 107 132 140 144 147 148 155 153 147 153 150 145 148 145 144 140 139 142 140 139 136 207 221 226 208 112 46 39 48 50 55 51 45 47 47 47 160 168 167 153 127 103 138 164 162 160 165 156 129 83 85 91 105 101 103 100 107 108 113 112 119 121 121 125 125 123 128 124 123 180 154 134 122 125 136 131 138 144 149 152 175 173 155 175 168 190 189 191 190 200 164 120 121 124 123 118 120 121 114 113 105 102 110 134 141 145 143 148 146 151 153 150 147 141 146 142 142 142 135 141 140 139 138 169 217 228 225 46 40 48 41 52 50 46 48 55 46 47 164 174 156 146 101 99 139 159 168 164 166 154 127 79 84 85 95 95 105 95 104 103 115 117 119 118 123 123 125 128 122 122 104 123 118 122 129 120 133 117 140 138 148 162 150 159 161 183 189 184 185 186 195 192 198 193 109 110 116 118 117 118 115 116 103 105 108 130 143 152 146 140 144 144 147 143 140 143 140 147 144 141 138 138 145 141 140 140 207 228 187 34 41 49 59 51 50 43 45 55 47 48 170 169 152 117 76 102 139 164 167 165 167 147 125 84 78 91 97 107 100 96 104 107 113 119 116 117 121 119 128 119 124 130 113 118 115 120 117 130 138 124 143 127 135 151 161 173 187 185 161 178 192 191 186 201 193 200 204 141 96 103 105 114 110 108 106 103 109 126 147 151 149 148 139 137 139 149 146 143 144 146 140 141 144 144 142 145 146 153 160 173 39 47 44 54 48 51 49 53 54 46 61 48 170 164 143 92 74 103 137 160 164 164 165 151 122 77 81 88 100 104 103 103 101 107 110 114 110 116 118 116 118 122 127 113 113 106 117 118 123 125 128 126 140 138 130 130 141 156 154 178 187 190 188 196 200 185 195 197 186 201 172 105 95 112 105 106 104 96 108 135 147 156 155 148 137 120 124 140 152 141 148 147 140 138 141 141 145 144 147 150 144 45 47 37 49 54 51 45 51 54 50 63 59 29 161 150 116 77 85 106 143 164 165 167 162 149 122 86 77 92 92 97 98 101 98 107 110 114 120 122 119 124 117 130 134 106 105 110 113 111 123 126 131 120 129 147 134 152 159 164 182 190 176 189 190 192 195 190 183 210 218 214 219 230 82 96 102 101 98 95 108 128 148 156 153 151 137 108 99 128 145 147 144 148 143 143 149 143 145 148 151 151 45 43 41 49 45 52 46 51 48 46 50 89 42 112 153 136 85 88 88 102 141 161 167 167 163 147 116 86 82 93 93 96 93 104 101 103 110 116 118 117 121 121 124 130 101 113 109 120 125 119 120 115 126 134 141 148 132 134 140 149 169 192 187 186 186 172 196 212 209 209 206 213 210 224 216 81 95 97 102 98 104 129 151 157 152 152 140 105 64 100 131 146 143 146 143 141 144 142 145 155 156 84 41 40 45 54 53 46 50 56 45 51 70 63 106 151 136 98 84 87 86 107 141 154 165 166 166 147 116 79 84 91 97 98 107 97 101 107 106 120 111 118 122 121 124 103 110 107 112 122 112 110 120 122 123 133 128 137 138 138 139 154 149 188 178 158 181 206 206 203 197 206 207 208 209 211 225 175 80 89 99 97 100 128 149 154 153 151 142 114 51 66 113 146 150 144 143 143 142 144 146 156 125 38 60 45 55 57 54 45 60 43 41 57 75 100 148 150 115 86 88 90 80 99 138 157 168 169 165 150 115 83 78 95 112 95 101 106 97 100 107 116 117 117 114 129 114 108 117 109 119 121 115 112 113 132 136 139 143 147 152 143 146 155 165 145 148 209 206 193 202 202 200 192 208 211 202 206 211 219 105 71 84 88 103 126 149 156 150 155 143 109 47 49 97 135 148 144 141 140 145 148 145 155 42 41 49 58 55 53 37 60 40 48 58 63 104 144 146 136 87 93 90 85 86 99 139 159 167 165 165 147 120 81 78 94 95 104 102 99 102 106 110 116 112 116 117 140 108 109 110 109 116 109 124 122 132 132 132 137 144 141 144 140 142 152 147 191 191 195 195 204 198 191 199 199 202 205 207 209 208 214 221 194 61 81 97 125 154 155 151 156 144 108 48 44 62 113 136 147 142 142 138 148 155 87 39 47 60 54 50 43 56 48 47 60 58 79 135 145 139 163 85 94 94 89 86 100 135 159 166 162 162 150 120 89 75 93 99 95 104 98 107 103 109 115 122 116 113 114 105 99 115 105 111 107 117 126 133 135 134 133 143 142 132 121 129 131 178 193 197 196 185 191 186 206 205 208 210 206 207 210 209 211 213 219 167 66 94 126 147 156 154 153 145 118 59 44 38 74 122 141 143 134 144 149 133 43 50 48 52 52 49 45 46 40 48 47 61 141 143 135 157 161 91 90 89 95 81 101 143 159 163 169 162 150 126 87 79 87 94 97 100 102 104 108 110 113 116 107 198 98 116 107 117 116 120 115 123 131 138 150 137 132 137 125 130 113 173 180 190 186 197 196 185 197 198 198 205 191 198 201 205 203 200 205 213 220 224 73 81 121 145 154 154 152 142 111 57 47 39 42 91 125 158 140 144 150 49 43 49 51 51 58 43 55 50 55 48 46 128 149 134 157 165 160 91 93 86 92 85 98 137 155 167 164 160 148 123 82 82 91 90 98 95 96 104 103 111 118 111 100 191 97 104 107 113 109 111 124 125 135 129 143 133 142 130 127 107 169 192 174 175 191 156 194 192 199 202 201 202 202 199 197 210 204 203 206 211 214 225 211 76 124 147 150 150 157 150 115 51 42 43 34 124 223 196 209 215 148 43 42 43 49 52 55 53 44 54 45 50 108 149 138 151 164 160 155 87 85 92 94 87 100 133 159 165 164 163 148 120 78 72 88 95 98 98 97 100 101 108 111 110 145 169 97 107 111 115 112 111 117 123 136 138 119 132 119 107 137 173 189 176 167 182 170 189 192 193 193 197 197 192 190 203 203 200 206 202 205 205 205 217 223 62 116 145 151 156 153 146 111 51 38 35 184 213 195 220 222 228 227 46 42 52 54 51 45 55 52 51 44 75 153 145 146 161 160 159 156 97 94 95 100 90 98 138 155 168 166 165 152 120 74 80 86 95 108 100 100 96 103 106 113 105 220 145 93 108 105 115 117 120 131 116 112 129 127 129 116 153 180 180 161 174 166 182 175 185 195 184 194 201 180 202 196 189 205 199 200 204 208 209 206 204 216 206 112 141 154 157 156 137 106 45 42 207 186 198 218 210 215 212 234 40 43 51 48 43 49 46 56 50 46 138 149 140 161 158 157 156 156 94 93 98 97 97 101 138 156 171 168 166 155 123 83 77 91 103 99 100 102 100 110 107 112 104 209 139 100 98 101 114 110 120 131 123 126 133 134 101 145 162 163 168 176 188 185 171 181 183 184 191 167 195 192 199 193 198 193 202 194 193 194 203 203 204 206 213 169 141 150 155 151 133 81 114 218 170 209 213 208 196 203 217 228 36 46 57 50 44 40 55 50 34 102 153 143 160 158 157 156 159 156 97 100 101 105 93 101 135 157 166 168 165 156 124 86 84 87 100 97 100 98 99 114 111 112 102 212 117 95 96 113 106 92 117 126 127 133 119 98 155 164 141 149 144 178 175 191 185 172 176 179 157 185 184 186 189 195 195 196 197 153 187 198 202 203 200 195 201 211 170 156 150 143 126 208 195 181 213 209 201 197 203 208 218 220 49 50 50 52 43 47 54 39 52 148 150 150 158 157 154 155 157 150 97 103 102 98 95 109 137 155 166 168 171 155 128 79 76 98 99 97 100 101 99 105 107 111 100 195 126 107 101 101 104 116 101 119 114 123 116 150 156 143 170 142 165 175 183 165 159 179 167 177 179 175 177 177 188 187 196 195 175 196 182 196 196 200 190 197 189 191 209 152 147 190 201 193 199 208 203 199 202 205 205 211 219 220 47 53 53 56 41 46 51 54 126 148 144 159 160 155 158 157 157 157 100 102 103 98 97 109 137 162 167 167 170 163 123 82 78 89 95 100 98 98 99 101 106 99 146 182 139 118 99 107 118 122 123 109 129 106 144 151 132 164 148 164 157 149 168 179 172 146 178 166 175 167 168 171 183 190 174 188 183 182 194 198 190 178 188 182 187 187 183 166 211 173 191 208 203 201 197 203 207 205 198 212 224 207 44 44 51 44 51 50 56 93 150 145 153 160 159 155 155 154 153 150 105 97 99 97 98 102 135 160 171 176 176 158 127 81 77 86 93 93 99 101 103 100 103 97 212 179 148 119 115 109 107 109 121 121 114 146 152 135 135 147 148 167 160 170 176 157 150 170 174 171 168 184 175 172 172 192 174 174 184 194 185 184 178 173 186 181 171 163 209 174 197 204 208 188 199 199 196 201 204 183 199 208 218 65 43 48 50 39 43 53 59 143 150 146 158 160 159 157 158 157 159 155 95 103 100 100 98 104 136 159 175 175 178 156 124 85 83 92 99 101 95 103 98 103 104 97 217 188 164 149 128 105 99 114 126 100 151 145 142 142 135 143 154 138 155 167 168 157 170 165 166 179 171 170 155 165 176 171 181 186 177 188 180 178 182 164 177 157 200 180 195 198 204 199 196 198 198 199 201 204 189 160 188 187 207 37 48 47 50 44 49 55 100 153 147 160 163 160 158 159 159 155 156 154 97 92 96 96 98 104 141 159 172 169 170 157 127 86 76 95 95 99 98 101 97 104 104 95 223 183 141 140 142 106 93 112 95 145 139 133 109 134 147 148 145 145 160 151 171 167 164 166 169 164 155 158 171 140 165 164 169 178 184 174 170 170 181 162 170 185 187 199 206 203 189 189 198 201 199 200 207 204 157 178 123 182 200 36 51 59 39 53 51 79 143 149 147 162 161 155 155 156 156 160 160 160 93 93 92 93 92 103 141 162 170 167 168 157 128 88 82 92 97 99 93 101 101 101 99 89 212 178 154 164 143 115 99 96 148 140 131 107 126 137 142 139 128 158 144 160 154 154 149 155 154 166 171 148 160 158 173 156 164 173 166 161 162 164 158 202 174 195 205 196 192 191 197 196 199 202 202 205 209 163 168 142 169 191 46 43 46 41 42 47 60 120 153 147 156 162 158 159 155 155 158 157 155 158 94 94 101 94 104 110 139 159 172 171 169 163 134 81 77 92 96 96 92 99 104 97 95 80 206 177 168 174 143 128 91 130 137 137 104 119 140 144 142 133 146 139 150 165 153 152 146 143 131 115 143 156 156 162 163 162 156 152 161 166 157 187 176 182 192 196 187 185 196 194 200 203 202 203 204 209 212 165 158 101 126 223 40 46 62 47 72 50 64 151 147 154 161 154 157 159 154 156 156 154 154 152 99 97 96 98 100 113 138 157 169 173 170 163 131 79 78 89 100 101 96 102 94 100 96 78 210 193 176 171 157 141 122 122 121 98 126 138 142 147 136 138 133 150 154 91 150 137 118 73 152 165 127 117 96 159 163 131 165 132 89 137 198 164 192 202 191 194 193 194 196 202 201 202 202 203 204 212 164 95 86 113 208 143 33 44 49 46 61 56 114 149 143 159 160 154 155 156 156 153 154 152 153 153 101 99 101 100 108 120 141 161 173 179 172 162 132 82 78 92 100 97 103 100 100 102 93 85 219 205 201 160 123 132 106 129 111 120 136 137 118 124 136 122 139 134 117 146 104 110 94 71 129 131 126 73 57 100 64 49 46 39 82 174 170 198 194 191 196 193 191 194 199 199 201 204 206 204 172 101 88 90 99 186 217 40 49 49 38 51 44 54 148 142 156 159 159 160 156 159 157 152 156 154 153 155 101 101 101 93 111 117 139 161 169 172 173 166 132 80 83 92 95 99 96 100 102 97 96 85 203 213 201 151 106 140 120 116 118 141 136 114 125 139 136 133 136 133 136 112 130 121 73 52 69 102 97 105 83 54 100 46 31 131 131 189 194 195 194 194 195 195 190 191 194 202 201 210 142 93 84 91 96 133 185 192 45 38 51 43 55 53 42 114 148 141 162 162 157 157 160 159 157 156 155 155 156 150 107 111 97 95 98 111 144 163 175 169 172 163 132 88 75 87 97 93 100 100 95 96 101 95 94 203 186 146 135 161 132 114 145 136 133 126 127 127 133 131 126 143 125 80 59 82 54 46 138 92 50 102 80 52 105 30 167 113 183 185 180 190 191 188 191 190 191 191 194 200 185 118 117 96 103 149 167 181 206 40 45 50 49 49 45 45 50 147 145 155 163 160 158 160 158 159 159 155 155 153 156 151 108 112 96 95 100 113 144 164 172 173 170 162 135 87 74 91 94 92 99 100 100 93 101 99 78 199 183 190 166 150 102 125 138 115 130 132 127 118 128 134 143 138 58 103 47 43 44 60 95 51 106 61 46 42 43 182 122 196 183 177 185 186 187 184 188 191 192 198 199 52 89 93 151 164 166 164 176 210 38 47 53 52 48 49 52 41 99 147 139 166 163 168 161 163 160 157 157 155 158 156 153 155 102 106 102 100 99 108 140 160 173 169 170 163 140 80 79 85 94 94 94 99 94 97 105 98 96 186 207 169 187 104 125 118 121 124 134 112 118 136 134 94 76 73 84 63 49 43 43 96 59 77 84 68 125 39 174 122 199 193 179 181 179 176 176 182 186 187 197 128 45 104 146 132 147 169 173 178 191 37 41 50 52 58 48 51 50 53 131 142 156 167 169 163 164 163 160 156 160 158 154 154 153 159 107 107 104 100 96 106 138 160 174 171 170 164 136 81 78 83 93 98 103 98 96 96 105 102 102 83 221 188 183 107 123 130 112 131 126 125 141 119 118 104 65 90 46 34 109 41 51 101 60 58 62 34 89 137 110 197 192 184 181 178 185 165 183 178 186 179 195 147 68 75 101 123 124 160 194 130 42 46 51 54 55 49 41 47 49 68 135 127 167 165 161 162 161 164 160 161 157 156 155 157 154 153 106 112 100 101 95 97 133 162 171 171 175 163 140 79 74 91 94 96 95 100 98 97 108 108 109 95 158 200 204 162 114 100 128 128 105 128 136 108 59 67 76 71 52 42 73 54 42 51 56 58 85 64 85 106 167 180 187 179 175 172 178 175 178 182 192 196 202 185 98 58 82 130 136 165 82 43 41 49 57 53 57 43 49 50 50 107 130 136 169 168 164 161 163 162 162 163 159 161 160 156 158 156 108 104 104 98 97 100 138 158 174 168 172 167 134 77 77 83 89 97 97 103 97 104 99 114 110 98 127 213 194 113 124 118 115 120 134 126 90 86 77 49 56 67 80 53 54 94 42 45 47 43 64 87 114 181 183 182 179 163 172 180 160 170 188 198 197 197 198 188 132 81 48 78 137 150 59 44 43 58 54 55 52 44 39 50 71 134 127 154 162 164 167 158 164 161 158 164 161 158 158 159 159 151 102 104 105 97 95 91 132 161 169 172 169 164 138 84 78 88 94 102 104 97 103 99 103 116 114 106 110 218 140 105 110 118 118 128 131 118 45 50 50 48 45 80 78 45 35 114 94 35 33 50 116 150 119 186 185 192 168 161 172 172 170 182 197 198 199 199 204 199 147 83 46 81 149 163 47 47 49 55 57 61 43 45 54 47 103 138 138 153 154 163 163 164 160 160 165 162 157 156 158 156 158 159 99 101 104 98 96 88 133 160 171 171 170 168 137 89 81 84 97 99 108 98 101 105 103 108 111 112 96 221 114 122 109 122 127 103 72 75 67 104 42 66 49 47 57 72 54 63 45 33 37 142 159 164 142 163 192 180 169 170 156 166 175 188 199 200 201 202 210 210 170 97 38 56 85 172 55 58 51 52 55 64 44 48 54 49 136 130 152 151 153 148 151 156 157 161 162 159 158 159 156 157 159 157 106 106 102 96 97 97 134 162 168 175 178 165 138 88 83 91 103 104 99 97 98 100 118 117 117 113 110 193 113 109 125 117 124 103 62 51 38 110 41 52 47 48 59 75 69 83 111 32 155 142 173 177 161 165 198 167 165 148 159 171 184 193 197 196 202 204 210 208 189 99 44 39 69 163 56 67 49 57 66 55 52 51 47 80 144 131 168 163 153 150 151 147 147 147 153 159 160 157 153 152 156 150 99 103 100 97 88 90 133 159 170 175 173 164 139 88 78 92 94 108 100 100 102 103 116 123 122 118 119 119 119 111 132 132 109 45 38 50 55 52 36 77 52 42 61 48 78 30 134 158 121 161 179 184 146 171 184 153 153 160 173 178 178 194 195 195 202 205 208 213 202 127 67 39 84 167 59 38 60 65 61 53 49 52 43 116 142 148 163 161 160 163 156 152 154 145 148 148 148 145 147 150 155 154 102 99 101 97 101 92 136 160 168 175 177 169 137 87 80 88 100 103 98 102 101 105 109 118 119 119 125 76 137 125 133 114 85 110 35 62 39 59 112 52 58 54 43 58 117 36 120 101 161 162 165 187 184 180 167 163 165 168 180 175 174 188 195 193 199 200 208 212 205 137 85 41 52 171 91 56 60 59 63 49 46 46 51 140 129 160 163 164 162 161 165 167 159 151 147 149 146 142 144 141 150 148 103 99 95 96 100 90 130 160 173 175 176 166 138 87 82 95 99 105 96 100 98 106 114 117 121 121 165 37 42 136 121 94 63 63 52 42 49 52 63 42 52 71 47 41 50 58 95 185 176 163 163 192 187 68 100 121 135 166 180 180 174 182 195 194 195 196 201 208 193 132 55 36 46 159 94 64 56 72 61 47 49 46 93 137 133 158 157 159 157 157 159 162 160 154 155 151 145 150 145 142 145 143 106 106 96 105 98 95 131 160 173 178 175 169 143 86 84 90 94 103 98 101 102 102 111 117 123 134 143 44 80 109 63 62 79 46 93 45 39 57 51 53 43 52 104 57 38 143 190 174 198 148 187 189 131 152 162 128 82 63 102 174 168 175 186 192 193 190 187 126 84 89 86 48 46 117 136 56 66 71 42 47 56 53 129 131 148 161 160 156 157 153 156 157 160 156 154 151 156 157 154 145 144 134 99 103 98 100 93 91 131 158 175 176 174 167 145 91 77 89 97 99 102 100 100 101 105 115 152 152 193 171 131 130 62 77 61 79 34 107 42 46 47 52 37 45 39 28 147 140 171 193 184 178 178 104 94 107 68 83 104 94 113 128 153 163 191 195 191 163 122 117 74 92 73 57 45 100 127 45 59 62 44 54 52 60 139 127 159 159 157 153 156 155 154 157 156 154 154 154 154 158 150 151 150 136 99 97 100 93 92 83 131 159 171 176 176 163 141 88 74 89 101 105 98 101 92 90 159 125 150 155 148 58 40 41 91 136 70 97 37 61 46 38 36 112 63 43 32 38 103 166 181 202 187 162 74 53 57 45 51 54 39 87 129 130 145 158 190 202 187 77 54 62 51 59 63 51 43 69 130 71 62 52 47 57 53 73 139 142 161 156 152 154 152 153 152 155 154 152 152 154 151 155 146 146 143 139 96 93 93 90 80 74 130 157 173 180 180 165 138 83 78 90 102 94 103 99 91 85 196 132 152 131 143 51 50 77 95 36 123 117 41 48 39 62 40 47 41 64 39 160 197 177 184 198 183 85 54 64 60 35 50 199 106 107 124 127 139 159 199 214 67 52 57 150 94 45 55 49 52 54 140 64 65 54 48 59 47 119 139 154 159 159 149 154 153 158 151 154 153 155 151 149 149 144 139 136 134 136 104 99 98 91 81 71 128 160 178 177 181 172 135 91 83 95 102 96 92 105 70 41 113 193 181 42 48 47 68 60 55 56 136 153 49 46 39 117 48 43 46 39 63 101 151 184 198 195 113 115 97 67 112 60 159 207 175 101 110 112 136 161 213 191 127 85 81 178 109 52 46 39 51 52 155 87 55 45 48 49 48 143 135 157 157 152 152 157 154 153 156 151 153 149 144 147 143 139 135 127 128 145 103 102 98 88 92 64 130 157 176 181 181 169 137 97 85 100 110 110 160 42 97 160 195 180 45 99 74 132 36 48 89 78 133 166 65 50 42 50 49 46 37 34 108 203 182 200 190 118 134 147 142 108 113 141 168 170 178 135 126 120 120 157 219 169 118 151 156 138 76 75 58 49 57 52 181 86 67 42 49 57 76 144 145 160 156 148 150 148 152 153 152 151 149 146 143 144 136 142 130 153 170 183 103 107 103 86 82 72 128 157 174 180 180 173 143 101 84 99 108 110 141 119 123 130 88 73 41 38 129 126 72 40 74 43 97 121 110 58 48 45 44 54 26 135 114 167 189 195 96 125 146 143 148 147 131 125 132 142 151 150 121 133 125 160 215 191 151 128 124 107 81 93 57 51 78 54 190 55 45 51 59 47 122 132 158 155 153 153 151 154 148 151 150 152 147 145 138 138 136 144 171 186 190 191 100 88 87 82 77 55 123 156 173 178 181 173 144 91 90 96 107 109 111 158 111 59 102 55 78 87 117 65 46 52 82 114 120 107 135 48 47 39 55 47 43 105 172 186 204 84 111 134 149 155 162 161 159 156 170 173 161 149 135 136 127 152 208 199 175 156 136 130 112 107 72 53 62 51 185 60 47 42 58 47 134 131 155 153 153 152 151 152 150 148 148 146 144 140 142 133 155 188 196 193 190 189 87 90 85 77 65 61 117 157 174 179 178 173 140 92 80 95 106 110 135 148 164 118 61 70 121 120 112 92 40 45 91 109 77 159 105 85 40 39 47 41 155 118 188 203 52 102 120 127 143 155 165 172 173 172 172 176 167 149 140 131 123 138 200 210 175 154 143 135 127 109 55 53 56 38 172 69 37 41 48 59 139 134 156 154 155 154 148 149 152 145 144 145 145 138 133 152 190 198 195 193 190 194 83 89 81 76 66 56 122 155 172 181 184 168 144 89 81 96 131 105 123 91 75 75 56 81 70 120 114 44 48 47 54 98 92 30 118 90 45 50 41 50 104 184 190 53 58 110 123 134 142 155 165 171 179 174 175 176 163 155 143 136 132 140 196 219 169 159 142 134 126 107 54 66 76 40 172 120 38 41 41 98 135 150 157 152 156 151 149 149 151 149 147 143 142 134 137 186 194 194 193 193 192 197 83 75 73 70 63 52 125 158 170 181 176 171 144 93 81 94 105 114 101 102 94 105 92 59 86 92 62 42 61 54 50 42 64 34 111 165 36 36 31 154 114 190 193 44 60 112 119 133 140 146 158 168 176 178 174 168 163 139 147 133 125 140 180 221 168 160 144 132 124 107 55 48 92 38 172 157 40 68 44 130 140 162 158 152 151 152 148 146 149 146 141 142 131 129 176 196 193 195 195 196 202 206 79 71 74 70 62 53 119 155 171 173 176 167 145 85 76 126 104 137 143 53 142 92 46 117 56 142 88 55 64 46 42 62 69 53 134 56 173 36 35 109 207 205 32 63 63 101 124 133 140 146 157 163 172 173 173 167 153 138 132 125 120 137 174 221 156 156 147 137 126 87 42 62 95 37 164 138 32 52 43 141 137 159 154 155 154 149 147 146 147 143 143 138 130 154 191 194 192 192 199 205 209 204 79 79 72 69 58 47 124 157 167 173 175 171 140 88 73 145 138 123 88 122 66 102 53 76 87 118 138 41 54 35 61 93 62 101 180 103 115 30 131 118 206 48 32 73 69 101 129 130 137 143 151 161 158 163 168 161 154 138 129 123 120 129 162 224 168 155 145 136 124 69 44 67 68 33 154 167 29 40 80 138 153 158 156 154 154 150 147 145 145 146 136 138 131 183 196 191 193 197 206 208 208 204 80 77 79 77 55 39 119 156 171 175 178 171 143 89 74 95 120 121 57 91 115 59 66 110 103 136 53 39 38 59 35 52 95 98 109 46 47 80 106 184 150 30 34 91 70 102 116 130 133 139 147 151 149 161 158 161 151 124 123 133 131 133 164 222 198 145 145 132 112 45 52 67 73 33 132 152 55 40 116 142 164 158 154 150 147 149 153 147 145 139 139 132 154 195 193 195 197 207 207 203 207 207 88 77 74 64 62 42 117 153 171 173 177 174 143 98 127 93 103 122 77 95 108 67 63 63 107 81 56 66 55 58 33 56 40 105 44 34 27 169 172 184 77 37 48 88 58 100 124 132 132 141 142 152 150 158 159 155 147 115 134 134 132 119 148 202 166 148 144 128 89 43 57 60 78 40 103 159 80 37 142 140 157 154 152 147 150 150 148 152 146 146 138 131 176 195 195 195 204 205 206 205 207 208 77 72 73 73 63 63 125 157 172 173 175 172 145 96 77 91 103 111 97 93 102 33 128 103 66 90 143 146 36 50 37 37 85 86 50 37 81 162 192 60 38 42 47 95 78 106 116 125 131 135 144 149 148 155 156 158 149 139 128 101 116 86 122 189 161 147 136 131 48 48 50 70 82 55 58 159 94 71 148 142 158 150 147 149 147 149 146 145 149 142 138 133 189 197 194 202 206 207 209 211 210 210 73 78 82 76 72 82 138 165 167 170 176 174 143 95 77 89 104 118 42 87 60 126 48 66 72 85 132 131 35 47 159 29 97 47 107 144 100 114 191 39 49 47 38 103 75 114 115 125 126 136 141 141 150 151 154 158 153 148 140 129 143 145 198 185 157 146 135 108 46 46 54 88 66 66 36 166 85 87 145 152 153 153 152 148 145 148 147 142 144 141 133 151 194 198 199 207 206 205 208 208 216 206 77 70 76 73 59 98 136 159 166 169 177 175 148 103 72 95 103 144 45 75 117 59 48 72 95 112 70 124 80 79 102 65 45 135 165 171 81 200 37 49 63 64 57 91 97 111 127 132 128 142 139 141 149 154 154 157 153 152 148 149 190 164 198 193 153 148 137 46 47 48 71 86 70 54 46 174 88 122 140 156 153 157 152 150 150 149 148 147 144 139 129 162 195 196 204 208 205 205 209 208 210 209 73 72 65 66 66 89 139 158 169 171 177 175 149 94 78 86 146 131 66 106 39 93 57 54 68 82 76 127 136 153 39 53 100 150 194 90 114 42 52 49 43 64 52 64 122 118 119 129 127 135 140 136 142 141 148 146 146 147 154 157 211 176 203 187 142 138 124 44 47 44 55 74 61 64 39 160 101 135 145 155 150 154 147 151 150 144 144 149 137 138 133 171 197 200 209 206 207 206 205 210 212 211 70 65 75 64 63 85 136 160 172 174 180 175 149 101 70 143 100 118 68 119 55 70 92 106 84 81 113 75 119 51 67 154 173 190 79 108 69 37 106 48 54 67 42 58 102 94 120 130 130 145 138 139 134 144 136 139 147 142 156 156 160 185 160 170 125 138 48 42 47 56 62 90 80 69 38 154 132 139 147 159 153 149 148 149 147 148 145 144 140 141 131 175 198 204 210 207 208 209 210 212 214 213 57 64 63 64 68 89 141 161 174 175 179 174 148 96 108 91 112 123 56 40 58 76 48 110 110 102 63 119 58 73 153 171 207 121 97 201 47 50 73 43 46 67 44 54 87 82 118 129 125 129 139 141 142 113 76 92 106 115 95 87 111 122 84 116 139 137 47 52 50 54 54 76 70 85 41 137 145 144 148 152 152 153 151 145 148 144 145 142 146 136 127 182 205 211 210 208 207 208 210 210 213 213 56 58 61 59 73 95 139 166 174 176 181 172 149 107 100 83 152 99 67 45 51 96 98 137 79 102 98 86 120 121 149 117 204 109 174 48 57 45 65 43 64 53 68 54 74 83 112 119 122 126 130 139 145 145 126 129 119 131 146 177 177 194 140 141 144 44 50 49 43 56 59 79 63 81 39 105 138 153 148 155 152 149 149 147 147 147 142 144 141 134 124 191 215 214 209 211 209 212 212 214 211 211 58 58 51 58 70 94 138 159 171 178 179 175 180 104 69 115 105 79 69 60 47 94 51 167 132 84 86 106 103 154 157 176 94 148 52 46 53 50 50 53 50 56 72 54 78 67 98 110 117 123 131 134 141 145 136 126 122 131 140 141 146 144 141 152 104 49 44 51 52 52 66 71 66 56 49 96 150 154 150 154 154 152 152 150 150 147 149 144 145 136 126 200 215 213 211 213 213 213 214 208 206 205 57 52 58 49 78 86 131 156 174 179 181 173 148 86 69 130 104 48 113 37 36 56 79 183 75 110 62 96 94 52 141 183 179 118 54 57 49 44 53 47 59 66 63 53 57 57 84 107 110 116 123 129 140 141 142 134 129 125 116 118 119 148 143 137 60 39 47 60 45 53 87 82 79 61 54 101 145 151 155 153 152 149 150 154 148 149 143 145 140 132 119 200 218 212 213 215 217 212 206 205 205 207 53 49 50 48 99 98 133 150 173 174 178 171 150 94 68 129 88 59 101 44 52 56 66 134 139 154 101 71 116 55 114 213 193 40 57 48 56 50 65 50 47 61 59 47 63 61 73 89 102 110 123 131 139 134 137 137 142 152 161 162 157 152 144 50 52 42 50 56 50 53 81 67 76 66 51 81 162 140 153 156 153 153 153 150 147 145 143 139 141 123 117 206 218 215 214 213 212 209 211 211 210 210 44 49 48 52 102 96 131 152 173 173 177 173 149 97 75 109 94 77 86 48 66 48 71 91 92 110 125 107 117 135 68 155 46 43 47 46 71 45 57 52 44 49 57 55 62 60 70 51 74 98 113 134 129 136 144 148 165 159 173 168 164 149 146 44 49 48 51 52 56 44 94 79 72 76 78 76 161 143 159 155 149 149 149 154 150 148 142 142 137 125 121 214 218 213 211 210 214 213 210 207 206 206 48 55 46 49 82 100 134 155 171 176 177 174 151 92 70 100 53 43 99 64 57 41 41 116 50 90 127 139 112 149 110 82 55 44 57 48 59 48 72 52 54 49 57 58 58 63 52 65 43 69 93 122 130 138 149 150 155 164 171 168 169 145 111 49 53 54 57 55 56 56 104 79 69 70 87 68 161 141 153 152 146 151 153 151 149 142 141 135 133 123 135 217 218 210 211 214 213 208 203 202 199 188 40 51 43 50 69 98 129 158 172 172 178 171 146 93 70 95 48 75 65 64 65 39 44 142 72 77 121 84 83 138 133 129 45 44 50 51 70 39 83 47 59 45 48 55 61 64 59 71 60 56 67 66 91 102 121 138 153 156 162 152 152 140 89 55 59 59 52 53 51 60 96 93 68 92 86 89 154 128 125 136 142 149 147 153 147 144 139 138 135 119 175 219 216 210 211 211 208 206 195 177 102 42 50 51 40 44 67 75 127 153 169 173 172 175 141 108 156 63 63 48 69 57 52 42 51 122 152 88 61 74 153 124 137 54 160 43 43 49 79 37 79 48 50 48 45 50 60 65 49 73 87 106 121 130 144 135 141 139 153 149 156 156 168 187 193 114 57 54 51 61 39 52 88 79 76 94 80 100 163 101 104 112 120 119 127 135 141 141 143 142 127 110 193 217 207 208 208 207 205 187 138 47 44 44 75 62 57 45 66 65 111 149 169 171 175 168 156 105 93 132 46 43 78 72 56 77 54 74 116 142 86 145 76 86 136 70 152 157 43 62 88 42 87 55 49 63 56 51 56 56 54 60 87 117 125 128 130 131 138 144 148 147 140 148 172 184 196 200 204 148 53 52 50 60 87 88 70 95 84 126 148 122 133 119 114 105 108 110 109 114 121 124 118 110 199 210 202 208 209 206 188 157 55 47 58 84 127 121 84 58 63 47 85 143 170 171 170 194 154 90 116 62 39 38 64 77 49 108 66 37 131 104 97 119 96 102 111 107 171 73 149 58 90 38 95 56 53 60 50 44 53 58 52 50 91 115 126 120 129 136 134 137 147 139 142 157 175 190 194 201 202 201 208 136 36 48 91 79 73 84 74 144 146 140 139 131 132 121 110 111 98 93 88 104 102 77 192 205 205 209 205 200 156 39 65 68 80 82 134 143 131 98 82 44 85 142 168 168 173 173 149 146 116 44 40 33 125 88 51 116 89 45 113 58 134 57 63 123 117 121 77 142 77 55 62 45 79 59 54 48 74 52 62 56 68 51 96 115 118 129 121 135 141 139 139 146 148 164 175 187 190 196 200 204 203 209 200 45 57 62 65 83 52 169 138 155 146 142 140 135 132 120 114 110 90 119 114 69 196 209 210 210 205 135 39 76 83 79 91 92 124 144 150 134 98 55 85 146 173 174 172 169 141 221 71 63 44 38 81 36 62 59 84 107 45 128 53 61 101 93 133 131 159 60 57 183 47 43 80 60 57 51 63 53 58 64 96 48 73 114 131 112 137 139 137 141 138 147 153 158 169 179 185 187 192 196 204 209 214 209 52 65 62 73 46 173 136 147 145 142 146 138 134 133 131 122 112 130 117 109 203 210 213 206 184 59 70 87 82 97 101 89 88 127 147 153 129 53 85 147 170 177 174 177 150 183 149 37 48 45 55 50 44 100 54 41 79 57 91 62 76 113 119 129 103 78 120 53 46 41 68 62 55 58 83 47 56 62 118 41 75 126 109 131 139 136 138 142 143 146 155 158 167 174 177 182 187 195 202 207 211 216 200 47 49 59 38 157 143 152 144 138 140 141 137 131 132 128 126 132 128 161 211 214 213 200 143 61 95 89 91 112 102 92 37 93 151 167 144 59 82 151 171 178 179 174 149 158 98 40 42 48 49 61 41 125 60 36 96 39 64 69 95 59 117 118 121 147 37 78 40 31 59 71 50 43 67 45 45 78 125 50 73 123 131 133 137 139 142 142 138 153 153 159 160 171 174 180 187 193 199 203 207 216 222 102 45 45 38 142 144 146 145 142 141 140 139 136 134 126 124 136 138 183 216 213 210 190 86 83 87 96 111 107 96 100 33 51 148 166 156 66 63 144 171 176 181 177 152 107 58 47 58 49 51 46 47 136 58 41 48 99 87 63 75 115 86 133 142 106 51 194 62 31 67 78 52 56 65 46 54 94 112 57 79 121 128 131 130 136 144 140 147 146 151 151 157 167 172 181 184 186 196 204 209 213 220 220 44 38 43 165 152 148 148 142 139 140 137 135 133 127 121 153 185 203 217 213 206 157 88 96 97 109 109 91 95 102 32 54 139 171 152 52 64 145 175 176 181 178 156 178 49 37 64 46 37 49 51 124 36 57 64 66 49 89 107 99 81 110 107 107 46 183 42 37 86 77 51 49 60 47 53 98 118 71 100 126 128 131 134 140 136 138 145 144 149 152 158 166 171 175 182 186 195 204 206 211 216 221 69 32 51 147 148 146 148 144 140 140 134 136 127 125 137 199 202 208 216 214 196 106 92 87 104 115 93 89 98 100 29 34 128 171 155 56 51 146 175 175 181 175 156 155 44 56 46 49 48 37 139 100 42 62 47 41 57 40 70 134 57 137 142 81 61 170 200 36 63 67 56 47 48 54 78 117 124 82 85 121 134 135 136 138 135 138 144 143 146 152 156 161 164 175 180 188 196 205 208 215 213 221 210 27 97 153 147 142 142 142 138 143 136 131 127 120 183 218 208 212 216 212 163 96 88 91 110 112 93 98 106 95 30 34 125 171 159 70 50 150 177 176 178 176 156 117 59 43 46 46 44 73 42 80 47 62 46 47 53 34 48 88 129 132 143 128 158 120 39 40 50 60 56 53 50 67 99 128 125 58 87 130 133 136 139 136 137 138 135 138 145 148 158 161 165 173 177 186 194 196 208 209 211 216 220 28 125 147 152 143 144 141 136 140 136 132 128 120 195 215 204 213 217 198 134 105 98 96 116 106 91 104 104 96 30 35 112 168 163 85 59 147 176 180 175 176 151 134 78 49 44 57 49 48 43 78 44 55 61 43 49 55 36 34 107 104 123 93 43 39 71 124 150 116 70 49 54 69 112 122 127 53 98 131 134 135 140 139 139 135 141 143 139 150 152 156 161 170 178 183 189 198 205 208 211 214 218 39 129 148 144 143 143 137 138 137 130 125 124 125 202 215 202 217 212 168 118 103 96 103 109 93 92 104 96 86 38 40 104 162 165 96 69 143 173 180 177 181 154 119 54 68 43 47 51 61 49 65 65 44 73 39 75 81 93 108 114 121 95 146 43 42 38 60 76 60 69 47 57 88 119 125 127 51 103 131 137 138 141 144 131 138 136 138 140 144 152 154 161 165 173 181 191 196 200 206 210 215 214 178 122 151 149 140 139 138 140 140 136 127 134 129 181 202 200 220 204 140 120 104 89 97 92 86 104 105 101 90 43 36 81 160 163 108 66 141 173 178 175 178 157 158 100 35 35 85 46 42 61 60 48 58 45 52 51 53 58 37 166 130 100 68 156 134 44 53 49 46 50 43 75 100 120 127 109 82 122 136 142 139 143 138 136 135 136 135 140 151 149 147 159 164 170 176 184 192 200 206 212 212 214 210 135 127 134 144 145 143 142 142 135 130 140 135 137 156 204 217 201 127 111 94 95 94 74 102 103 92 91 95 39 32 76 155 158 118 61 139 167 176 175 173 155 157 92 45 45 49 43 52 52 55 76 45 64 40 70 53 71 111 42 40 150 66 64 91 48 37 50 54 45 43 81 111 119 126 65 90 130 133 136 136 140 142 140 139 135 144 146 146 144 152 155 158 168 174 183 191 199 205 209 210 213 216 137 85 90 106 119 129 136 140 142 139 149 142 139 145 208 214 180 113 98 93 99 77 88 100 97 95 101 99 34 31 49 169 175 130 60 132 167 178 175 177 153 125 82 38 65 39 47 71 63 54 56 53 41 49 46 70 111 132 58 76 55 72 88 38 50 54 49 42 46 73 101 119 115 113 57 114 130 135 144 142 144 141 139 137 139 135 140 144 145 150 154 160 167 168 177 183 195 205 208 215 211 217 143 82 70 68 81 85 96 107 115 137 157 146 134 162 217 208 144 94 80 87 83 85 114 90 95 97 96 74 41 31 48 159 182 144 58 134 167 174 176 182 160 81 81 34 42 40 61 53 80 47 59 69 51 60 53 42 41 102 129 75 86 72 42 51 40 41 45 44 54 88 116 120 119 39 86 130 137 135 137 141 137 144 136 138 138 134 140 138 144 149 151 155 162 168 175 189 193 196 207 208 212 217 211 89 97 93 87 68 63 56 53 79 116 184 160 191 217 189 106 63 87 75 76 108 91 87 91 101 92 63 58 76 70 154 183 154 60 128 166 177 173 177 162 86 66 38 52 66 43 59 45 47 53 59 52 39 40 48 47 38 139 132 100 140 33 42 45 45 39 44 74 100 115 114 62 53 127 133 132 139 138 137 136 143 139 139 136 139 147 141 136 145 149 157 158 167 179 184 192 198 204 209 212 214 216 85 105 103 99 88 82 57 51 38 148 205 152 204 211 148 72 58 82 66 96 98 79 88 99 114 85 72 84 85 100 156 182 165 69 127 168 177 175 182 159 113 82 50 42 54 43 66 51 58 62 65 59 45 65 47 64 65 71 100 128 75 52 43 44 35 44 58 81 116 113 62 44 111 128 133 134 138 137 143 141 142 140 144 142 138 139 142 138 146 149 153 158 159 167 175 188 193 200 206 209 212 214 97 95 106 106 89 85 73 53 49 143 201 184 199 164 59 54 71 64 88 105 77 78 86 106 98 83 62 68 103 114 153 177 162 80 132 164 176 180 183 161 128 51 52 52 48 44 66 47 53 66 44 87 43 47 80 60 74 79 138 78 99 43 48 42 36 49 75 102 114 33 59 105 123 132 134 135 143 139 139 142 139 144 143 140 141 139 141 136 142 144 146 153 160 165 170 178 191 197 206 209 213 216 194 89 100 101 94 95 82 78 80 135 210 197 133 76 51 76 68 85 106 90 71 76 104 109 88 79 67 42 88 97 140 179 168 88 126 165 177 180 179 163 98 40 43 47 45 47 47 45 45 59 39 108 63 43 83 65 66 56 109 123 39 35 43 40 44 56 48 38 69 94 109 129 122 128 130 136 135 138 132 146 140 146 145 145 141 144 139 141 140 143 150 150 153 165 174 178 187 193 202 207 212 215 213 84 96 100 103 106 95 103 102 124 183 125 92 67 76 74 91 116 90 82 66 97 121 105 95 60 66 47 58 87 125 173 164 109 123 166 175 180 182 161 57 47 55 44 63 61 50 38 48 91 42 102 121 36 105 29 63 79 121 54 75 44 65 41 39 64 78 99 115 125 120 124 129 127 128 129 137 136 138 142 139 140 143 143 149 143 136 143 139 142 150 149 156 167 164 176 185 187 197 203 214 211 213 71 92 95 109 112 107 115 120 109 111 86 90 94 79 77 104 91 71 59 79 114 121 109 78 60 61 51 57 58 117 195 196 125 127 164 178 180 185 126 53 59 62 44 64 57 61 84 53 110 49 106 138 55 114 76 47 134 53 120 38 51 53 49 60 93 108 118 118 125 124 128 134 130 129 135 136 138 140 133 141 141 144 145 148 143 144 143 142 145 148 151 153 163 166 175 181 185 194 201 206 208 213 119 80 102 104 109 122 121 116 112 103 98 112 93 85 98 91 68 75 71 106 117 113 91 62 58 56 47 54 54 127 199 202 169 125 160 175 176 181 144 63 43 49 68 62 57 71 66 45 77 47 115 74 112 39 103 56 70 44 87 110 37 40 63 92 105 119 118 124 122 125 125 129 128 133 132 132 134 139 137 139 144 145 144 146 146 151 149 148 143 150 154 153 159 167 172 173 187 191 200 207 208 210 197 69 89 96 112 120 126 119 115 114 125 118 93 98 91 89 85 76 98 125 117 99 63 47 52 60 