P2
20 20
245
162 157 167 104 103 127 129 133 135 128 132 132 126 131 150 152 155 104 124 124 154 157 162 97 103 125 131 133 127 128 128 127 127 104 161 155 151 219 121 132 161 146 163 99 104 125 132 134 146 180 171 129 126 107 144 155 142 143 128 45 170 103 165 88 101 116 127 118 140 156 188 197 95 96 155 140 140 144 47 45 87 99 165 94 102 116 110 122 144 152 195 199 208 81 151 44 142 87 50 60 97 98 165 86 96 220 115 112 153 166 184 196 204 216 157 42 210 43 46 149 105 102 176 86 103 179 107 146 148 157 168 192 185 181 197 199 199 48 59 160 99 113 170 89 94 193 122 138 133 137 127 131 198 194 201 212 208 46 143 156 102 108 170 85 94 186 125 112 76 43 84 122 179 187 146 178 52 53 169 156 99 88 170 84 101 112 109 75 49 63 159 180 175 202 38 58 44 130 151 159 106 95 175 90 102 134 63 45 43 143 187 128 168 190 86 56 56 161 156 151 103 64 181 100 97 99 89 50 37 200 142 170 120 151 58 86 76 148 152 144 83 52 176 94 94 92 50 165 114 112 158 168 125 160 55 157 140 152 141 196 77 63 175 91 102 90 37 37 38 106 144 158 116 147 50 159 158 149 138 202 57 89 179 91 58 102 153 201 46 82 139 92 111 137 54 137 152 144 127 208 44 96 177 109 66 110 68 46 44 60 113 148 164 48 94 76 149 148 121 210 127 47 170 62 49 104 111 58 53 58 126 137 175 201 91 144 132 93 192 200 33 66 181 47 47 99 86 194 52 94 128 140 157 186 220 165 139 127 217 96 38 96 177 68 49 39 114 42 69 125 137 138 152 181 210 151 140 129 204 97 58 154 173 38 45 39 139 42 74 53 138 139 136 167 204 85 82 205 72 98 