P2
20 15
255
163 118 86 59 72 84 127 186 208 80 60 34 168 156 150 156 130 115 105 33 38 150 173 185 140 142 206 150 146 145 172 105 103 137 66 42 81 154 162 135 220 102 57 111 110 231 209 137 155 133 138 43 97 140 66 187 142 17 78 93 245 163 152 198 168 154 147 86 9 36 88 182 15 214 72 244 172 125 194 40 144 143 97 38 34 77 26 20 228 71 178 153 141 173 132 143 143 86 11 9 21 37 40 229 82 158 158 152 160 159 142 125 96 13 6 14 14 34 168 68 148 161 140 139 14 130 79 71 2 1 102 14 14 157 15 159 170 146 22 3 72 17 73 92 75 197 0 1 11 46 252 241 251 20 3 53 220 40 61 9 2 1 19 26 52 250 241 185 20 6 195 112 69 55 8 70 75 0 162 27 216 250 249 89 77 56 11 13 53 5 71 113 37 89 11 245 139 75 13 19 160 1 146 38 5 65 189 204 241 186 89 54 37 6 4 0 4 186 41 16 71 182 201 245 175 107 80 23 6 2 4 123 117 27 9 30 16 62 244 157 137 39 24 8 4 7 8 69 33 7 28 30 71 134 32 135 64 33 14 7 9 2 112 71 73 40 18 170 149 18 233 72 45 33 16 16 9 126 244 11 127 26 25 33 31 255 83 62 45 30 29 23 22 17 22 63 56 141 38 37 